<svg xmlns="http://www.w3.org/2000/svg" xmlns:xlink="http://www.w3.org/1999/xlink" version="1.1" data-diagram-type="DESCRIPTION" style="width:897px;height:644px;background:#FFFFFF;" width="897px" height="644px" viewBox="0 0 897 644" zoomAndPan="magnify" preserveAspectRatio="none" contentStyleType="text/css"><?plantuml 1.2026.7beta8?><defs/><g font-family="sans-serif" lengthAdjust="spacing"><!--cluster Hệ thống Đặt & Giao đồ ăn--><g class="cluster" data-qualified-name="H. th.ng ..t . Giao .. .n" id="ent0006" data-source-line="12"><rect x="149.85" y="7" width="504.45" height="585" fill="none" style="stroke:#181818;stroke-width:1;" rx="2.5" ry="2.5"/><text x="296.47" y="21.995" fill="#000" font-size="14" textLength="211.21" font-weight="700">Hệ thống Đặt &amp; Giao đồ ăn</text></g><!--entity UC1--><g class="entity" data-qualified-name="H. th.ng ..t . Giao .. .n.UC1" id="ent0007" data-source-line="13"><ellipse cx="268.086" cy="133.003" rx="94.916" ry="21.383" fill="#F1F1F1" style="stroke:#181818;stroke-width:0.5;"/><text x="185.693" y="137.652" fill="#000" font-size="14" textLength="164.787">Duyệt menu &amp; đặt món</text></g><!--entity UC2--><g class="entity" data-qualified-name="H. th.ng ..t . Giao .. .n.UC2" id="ent0008" data-source-line="14"><ellipse cx="268.09" cy="205.998" rx="71.64" ry="16.728" fill="#F1F1F1" style="stroke:#181818;stroke-width:0.5;"/><text x="212.849" y="210.647" fill="#000" font-size="14" textLength="110.482">Thanh toán đơn</text></g><!--entity UC3--><g class="entity" data-qualified-name="H. th.ng ..t . Giao .. .n.UC3" id="ent0009" data-source-line="15"><ellipse cx="268.086" cy="276.003" rx="80.066" ry="18.413" fill="#F1F1F1" style="stroke:#181818;stroke-width:0.5;"/><text x="202.67" y="280.652" fill="#000" font-size="14" textLength="130.833">Theo dõi đơn hàng</text></g><!--entity UC4--><g class="entity" data-qualified-name="H. th.ng ..t . Giao .. .n.UC4" id="ent0010" data-source-line="16"><ellipse cx="268.09" cy="481.998" rx="102.24" ry="22.848" fill="#F1F1F1" style="stroke:#181818;stroke-width:0.5;"/><text x="177.599" y="486.646" fill="#000" font-size="14" textLength="180.981">Xác nhận &amp; chuẩn bị món</text></g><!--entity UC5--><g class="entity" data-qualified-name="H. th.ng ..t . Giao .. .n.UC5" id="ent0011" data-source-line="17"><ellipse cx="268.087" cy="59.003" rx="74.417" ry="17.283" fill="#F1F1F1" style="stroke:#181818;stroke-width:0.5;"/><text x="209.431" y="63.652" fill="#000" font-size="14" textLength="117.312">Nhận &amp; giao đơn</text></g><!--entity UC6--><g class="entity" data-qualified-name="H. th.ng ..t . Giao .. .n.UC6" id="ent0012" data-source-line="18"><ellipse cx="268.088" cy="410.004" rx="44.338" ry="14.524" fill="#F1F1F1" style="stroke:#181818;stroke-width:0.5;"/><text x="238.858" y="414.652" fill="#000" font-size="14" textLength="58.461">Hủy đơn</text></g><!--entity UC7--><g class="entity" data-qualified-name="H. th.ng ..t . Giao .. .n.UC7" id="ent0013" data-source-line="19"><ellipse cx="587.325" cy="467.004" rx="50.985" ry="14.524" fill="#F1F1F1" style="stroke:#181818;stroke-width:0.5;"/><text x="553.394" y="471.652" fill="#000" font-size="14" textLength="67.86">Hoàn tiền</text></g><!--entity UC8--><g class="entity" data-qualified-name="H. th.ng ..t . Giao .. .n.UC8" id="ent0014" data-source-line="20"><ellipse cx="268.088" cy="345.002" rx="65.108" ry="15.422" fill="#F1F1F1" style="stroke:#181818;stroke-width:0.5;"/><text x="221.211" y="349.65" fill="#000" font-size="14" textLength="93.755">Đánh giá đơn</text></g><!--entity UC9--><g class="entity" data-qualified-name="H. th.ng ..t . Giao .. .n.UC9" id="ent0015" data-source-line="21"><ellipse cx="268.09" cy="557.996" rx="78.93" ry="18.186" fill="#F1F1F1" style="stroke:#181818;stroke-width:0.5;"/><text x="204.016" y="562.644" fill="#000" font-size="14" textLength="128.146">Xử lý giao thất bại</text></g><!--entity Customer--><g class="entity" data-qualified-name="Customer" id="ent0001" data-source-line="6"><ellipse cx="54.43" cy="253.85" rx="16" ry="16" fill="#F1F1F1" style="stroke:#181818;stroke-width:0.5;"/><path d="M54.43,273.85 C58.43,273.85 61.43,273.85 65.43,269.85 C73.43,269.85 81.43,277.85 81.43,285.85 L81.43,289.85 C81.43,293.85 77.43,297.85 73.43,297.85 L35.43,297.85 C31.43,297.85 27.43,293.85 27.43,289.85 L27.43,285.85 C27.43,277.85 35.43,269.85 43.43,269.85 C47.43,273.85 50.43,273.85 54.43,273.85" style="stroke:#181818;stroke-width:0.5;" fill="#F1F1F1"/><text x="32.828" y="311.345" fill="#000" font-size="14" textLength="43.203">Khách</text></g><!--entity Restaurant--><g class="entity" data-qualified-name="Restaurant" id="ent0002" data-source-line="7"><ellipse cx="54.423" cy="428.85" rx="16" ry="16" fill="#F1F1F1" style="stroke:#181818;stroke-width:0.5;"/><path d="M54.423,448.85 C58.423,448.85 61.423,448.85 65.423,444.85 C73.423,444.85 81.423,452.85 81.423,460.85 L81.423,464.85 C81.423,468.85 77.423,472.85 73.423,472.85 L35.423,472.85 C31.423,472.85 27.423,468.85 27.423,464.85 L27.423,460.85 C27.423,452.85 35.423,444.85 43.423,444.85 C47.423,448.85 50.423,448.85 54.423,448.85" style="stroke:#181818;stroke-width:0.5;" fill="#F1F1F1"/><text x="20.63" y="486.345" fill="#000" font-size="14" textLength="67.587">Nhà hàng</text></g><!--entity Shipper--><g class="entity" data-qualified-name="Shipper" id="ent0003" data-source-line="8"><ellipse cx="54.43" cy="36.85" rx="16" ry="16" fill="#F1F1F1" style="stroke:#181818;stroke-width:0.5;"/><path d="M54.43,56.85 C58.43,56.85 61.43,56.85 65.43,52.85 C73.43,52.85 81.43,60.85 81.43,68.85 L81.43,72.85 C81.43,76.85 77.43,80.85 73.43,80.85 L35.43,80.85 C31.43,80.85 27.43,76.85 27.43,72.85 L27.43,68.85 C27.43,60.85 35.43,52.85 43.43,52.85 C47.43,56.85 50.43,56.85 54.43,56.85" style="stroke:#181818;stroke-width:0.5;" fill="#F1F1F1"/><text x="27.534" y="94.345" fill="#000" font-size="14" textLength="53.792">Shipper</text></g><!--entity Admin--><g class="entity" data-qualified-name="Admin" id="ent0004" data-source-line="9"><ellipse cx="54.426" cy="570.85" rx="16" ry="16" fill="#F1F1F1" style="stroke:#181818;stroke-width:0.5;"/><path d="M54.426,590.85 C58.426,590.85 61.426,590.85 65.426,586.85 C73.426,586.85 81.426,594.85 81.426,602.85 L81.426,606.85 C81.426,610.85 77.426,614.85 73.426,614.85 L35.426,614.85 C31.426,614.85 27.426,610.85 27.426,606.85 L27.426,602.85 C27.426,594.85 35.426,586.85 43.426,586.85 C47.426,590.85 50.426,590.85 54.426,590.85" style="stroke:#181818;stroke-width:0.5;" fill="#F1F1F1"/><text x="6" y="628.345" fill="#000" font-size="14" textLength="96.852">CSKH / Admin</text></g><!--entity Gateway--><g class="entity" data-qualified-name="Gateway" id="ent0005" data-source-line="10"><ellipse cx="823.898" cy="374.85" rx="16" ry="16" fill="#F1F1F1" style="stroke:#181818;stroke-width:0.5;"/><path d="M823.898,394.85 C827.898,394.85 830.898,394.85 834.898,390.85 C842.898,390.85 850.898,398.85 850.898,406.85 L850.898,410.85 C850.898,414.85 846.898,418.85 842.898,418.85 L804.898,418.85 C800.898,418.85 796.898,414.85 796.898,410.85 L796.898,406.85 C796.898,398.85 804.898,390.85 812.898,390.85 C816.898,394.85 819.898,394.85 823.898,394.85" style="stroke:#181818;stroke-width:0.5;" fill="#F1F1F1"/><text x="765.3" y="432.345" fill="#000" font-size="14" textLength="117.195">Cổng thanh toán</text></g><!--link Customer to UC1--><g class="link" data-entity-1="ent0001" data-entity-2="ent0007" id="lnk16" data-source-line="24" data-link-type="dependency"><path d="M79.55,237.04 C94.93,215.12 116.68,188.84 141.85,172 C158.13,161.11 172.824,154.62 191.514,148.83" style="stroke:#181818;stroke-width:1;" fill="none" id="Customer-to-UC1"/><polygon points="196.29,147.35,186.509,146.192,191.514,148.83,188.877,153.834,196.29,147.35" fill="#181818" style="stroke:#181818;stroke-width:1;stroke-linejoin:miter;stroke-miterlimit:10;"/></g><!--link Customer to UC2--><g class="link" data-entity-1="ent0001" data-entity-2="ent0008" id="lnk17" data-source-line="25" data-link-type="dependency"><path d="M82.33,263.74 C99.21,256.31 121.55,246.95 141.85,240 C166.26,231.65 189.048,225.206 212.128,219.266" style="stroke:#181818;stroke-width:1;" fill="none" id="Customer-to-UC2"/><polygon points="216.97,218.02,207.257,216.389,212.128,219.266,209.251,224.137,216.97,218.02" fill="#181818" style="stroke:#181818;stroke-width:1;stroke-linejoin:miter;stroke-miterlimit:10;"/></g><!--link Customer to UC3--><g class="link" data-entity-1="ent0001" data-entity-2="ent0009" id="lnk18" data-source-line="26" data-link-type="dependency"><path d="M82.23,276 C108.71,276 145.51,276 182.68,276" style="stroke:#181818;stroke-width:1;" fill="none" id="Customer-to-UC3"/><polygon points="187.68,276,178.68,272,182.68,276,178.68,280,187.68,276" fill="#181818" style="stroke:#181818;stroke-width:1;stroke-linejoin:miter;stroke-miterlimit:10;"/></g><!--link Customer to UC6--><g class="link" data-entity-1="ent0001" data-entity-2="ent0012" id="lnk19" data-source-line="27" data-link-type="dependency"><path d="M79.57,314.93 C94.89,336.55 116.57,362.18 141.85,378 C166.97,393.71 194.542,400.943 220.142,405.023" style="stroke:#181818;stroke-width:1;" fill="none" id="Customer-to-UC6"/><polygon points="225.08,405.81,216.822,400.443,220.142,405.023,215.563,408.344,225.08,405.81" fill="#181818" style="stroke:#181818;stroke-width:1;stroke-linejoin:miter;stroke-miterlimit:10;"/></g><!--link Customer to UC8--><g class="link" data-entity-1="ent0001" data-entity-2="ent0014" id="lnk20" data-source-line="28" data-link-type="dependency"><path d="M82.31,288.32 C99.18,295.77 121.53,305.13 141.85,312 C167.3,320.61 191.425,327.174 215.095,333.004" style="stroke:#181818;stroke-width:1;" fill="none" id="Customer-to-UC8"/><polygon points="219.95,334.2,212.168,328.164,215.095,333.004,210.255,335.932,219.95,334.2" fill="#181818" style="stroke:#181818;stroke-width:1;stroke-linejoin:miter;stroke-miterlimit:10;"/></g><!--link Restaurant to UC4--><g class="link" data-entity-1="ent0002" data-entity-2="ent0010" id="lnk21" data-source-line="30" data-link-type="dependency"><path d="M88.5,455.85 C113.5,459.51 144.043,463.987 176.813,468.777" style="stroke:#181818;stroke-width:1;" fill="none" id="Restaurant-to-UC4"/><polygon points="181.76,469.5,173.433,464.24,176.813,468.777,172.276,472.156,181.76,469.5" fill="#181818" style="stroke:#181818;stroke-width:1;stroke-linejoin:miter;stroke-miterlimit:10;"/></g><!--link Restaurant to UC6--><g class="link" data-entity-1="ent0002" data-entity-2="ent0012" id="lnk22" data-source-line="31" data-link-type="dependency"><path d="M88.5,444.6 C126.64,437.21 184.291,426.041 224.341,418.281" style="stroke:#181818;stroke-width:1;" fill="none" id="Restaurant-to-UC6"/><polygon points="229.25,417.33,219.653,415.115,224.341,418.281,221.175,422.969,229.25,417.33" fill="#181818" style="stroke:#181818;stroke-width:1;stroke-linejoin:miter;stroke-miterlimit:10;"/></g><!--link Shipper to UC5--><g class="link" data-entity-1="ent0003" data-entity-2="ent0011" id="lnk23" data-source-line="33" data-link-type="dependency"><path d="M82.23,59 C110.04,59 149.77,59 188.26,59" style="stroke:#181818;stroke-width:1;" fill="none" id="Shipper-to-UC5"/><polygon points="193.26,59,184.26,55,188.26,59,184.26,63,193.26,59" fill="#181818" style="stroke:#181818;stroke-width:1;stroke-linejoin:miter;stroke-miterlimit:10;"/></g><!--link Admin to UC7--><g class="link" data-entity-1="ent0004" data-entity-2="ent0013" id="lnk24" data-source-line="35" data-link-type="dependency"><path d="M103.16,599.97 C165.54,607.54 277.75,615.86 370.33,594 C453.73,574.31 532.86,512.958 566.67,484.228" style="stroke:#181818;stroke-width:1;" fill="none" id="Admin-to-UC7"/><polygon points="570.48,480.99,561.032,483.77,566.67,484.228,566.212,489.866,570.48,480.99" fill="#181818" style="stroke:#181818;stroke-width:1;stroke-linejoin:miter;stroke-miterlimit:10;"/></g><!--link Admin to UC9--><g class="link" data-entity-1="ent0004" data-entity-2="ent0015" id="lnk25" data-source-line="36" data-link-type="dependency"><path d="M103.19,585.1 C132.7,580.22 165.997,574.716 198.107,569.406" style="stroke:#181818;stroke-width:1;" fill="none" id="Admin-to-UC9"/><polygon points="203.04,568.59,193.508,566.112,198.107,569.406,194.813,574.005,203.04,568.59" fill="#181818" style="stroke:#181818;stroke-width:1;stroke-linejoin:miter;stroke-miterlimit:10;"/></g><!--link UC2 to Gateway--><g class="link" data-entity-1="ent0008" data-entity-2="ent0005" id="lnk26" data-source-line="38" data-link-type="dependency"><path d="M310.5,219.8 C328.84,225.95 350.68,233.29 370.33,240 C512.39,288.5 674.39,345.009 760.37,375.089" style="stroke:#181818;stroke-width:1;stroke-dasharray:7,7;" fill="none" id="UC2-to-Gateway"/><polygon points="765.09,376.74,757.916,369.992,760.37,375.089,755.274,377.544,765.09,376.74" fill="#181818" style="stroke:#181818;stroke-width:1;stroke-linejoin:miter;stroke-miterlimit:10;"/></g><!--link UC7 to Gateway--><g class="link" data-entity-1="ent0013" data-entity-2="ent0005" id="lnk27" data-source-line="39" data-link-type="dependency"><path d="M623.69,456.45 C661.06,445.29 715.809,428.96 760.079,415.75" style="stroke:#181818;stroke-width:1;stroke-dasharray:7,7;" fill="none" id="UC7-to-Gateway"/><polygon points="764.87,414.32,755.102,413.06,760.079,415.75,757.39,420.726,764.87,414.32" fill="#181818" style="stroke:#181818;stroke-width:1;stroke-linejoin:miter;stroke-miterlimit:10;"/><text x="671.3" y="420.067" fill="#000" font-size="13" textLength="63.007">«include»</text></g><!--link UC6 to UC7--><g class="link" data-entity-1="ent0012" data-entity-2="ent0013" id="lnk28" data-source-line="41" data-link-type="dependency"><path d="M307.67,416.93 C367.28,427.64 476.429,447.256 538.539,458.416" style="stroke:#181818;stroke-width:1;stroke-dasharray:7,7;" fill="none" id="UC6-to-UC7"/><polygon points="543.46,459.3,535.309,453.771,538.539,458.416,533.894,461.645,543.46,459.3" fill="#181818" style="stroke:#181818;stroke-width:1;stroke-linejoin:miter;stroke-miterlimit:10;"/><text x="423.068" y="417.067" fill="#000" font-size="13" textLength="61.185">«extend»</text><text x="401.33" y="432.2" fill="#000" font-size="13" textLength="104.66">(khi đã thu tiền)</text></g><!--link UC9 to UC7--><g class="link" data-entity-1="ent0015" data-entity-2="ent0013" id="lnk29" data-source-line="42" data-link-type="dependency"><path d="M319.01,543.68 C383.39,525.21 489.004,494.919 545.664,478.659" style="stroke:#181818;stroke-width:1;stroke-dasharray:7,7;" fill="none" id="UC9-to-UC7"/><polygon points="550.47,477.28,540.716,475.918,545.664,478.659,542.923,483.607,550.47,477.28" fill="#181818" style="stroke:#181818;stroke-width:1;stroke-linejoin:miter;stroke-miterlimit:10;"/><text x="421.83" y="488.067" fill="#000" font-size="13" textLength="63.007">«include»</text></g><?plantuml-src PPBFQzH05CVlyrSyzg3jORVO7zkkb82iq4AXWcl1WvVPPCmCcqn2CcCD8YWzUF3IOdlmPX0H3yM3YB31KnR_Z_4lyUNNRh8U0ZFVx-UzUU_btOL7MeLQmPQEcKrZrdS4TIFgmzytru0Q528quiOB4MlgGMm78TiSm2I95VDX6cZfq2Y1gPb_Lp3L9lje3uZ7dYjG0KJ2vGfpHCnM8f0adWaPqY9VIEqPTTb49Hw3mgRIzLWBeBOAeigcvomEV4P8gK7lXEUfpNj0OnZhMA4LDTOfppy1Vj8jxSSiLbH7LAe6c70HXYmgtVhSMEF9oJ5imGF75xBqozFIDTcDT45nAZcsbgSLSqGLEwS98SiUe7TiidS8ckmA0nQNPlvBmHqu4ZI0nPN9Fi3Y0eDV4O1wzD1xg1CCKk0pgP55h0Zoyn_LAsVZUstwoQe8HF-a3RJTXLW0JlvJL4XhAcVZdJRu5AS9aflvhSIdRQxD_9l47vgzRnUmsmuvRMYtQcfLmbuRmq5yJJhsi6C7M18eORAtZR_VzXUNs237D_Aqa-IWKxt9Ri7BVrUbuDJdNrInZQcewH5vJKYp9z3lM-KqruJjTM5dNHYk2mU4hDQhrdR_buQ4r7jM2tk4b8jLN_Sxjn4XM0mC1jPoin1ft-4-71uAQNlQOPPLuCFIBh32OYyLauvbFPCRCrxy-_mpJaNNOzv4VjJXbwd-0G00?></g></svg>